Coordinates
version=1
nRows=16
nColumns=36
inDegrees=yes

Units are S.I. units (second, meters, Newtons, ...)
If the header above contains a line with 'inDegrees', this indicates whether rotational values are in degrees (yes) or radians (no).

endheader
time	pelvis_tilt	pelvis_list	pelvis_rotation	pelvis_tx	pelvis_ty	pelvis_tz	hip_flexion_r	hip_adduction_r	hip_rotation_r	knee_angle_r	knee_angle_r_beta	ankle_angle_r	subtalar_angle_r	mtp_angle_r	hip_flexion_l	hip_adduction_l	hip_rotation_l	knee_angle_l	knee_angle_l_beta	ankle_angle_l	subtalar_angle_l	mtp_angle_l	lumbar_extension	lumbar_bending	lumbar_rotation	arm_flex_r	arm_add_r	arm_rot_r	elbow_flex_r	pro_sup_r	arm_flex_l	arm_add_l	arm_rot_l	elbow_flex_l	pro_sup_l
      0.00000000	     24.28818320	     -2.36285642	     -2.37570204	     -0.60900689	      0.60171832	     -0.63463988	     67.64085754	     -2.47882163	      3.14412991	    108.52314326	      1.89408616	     20.53776414	     -0.05357754	     -3.69558871	     67.94282630	     -2.83416898	      2.43598048	    110.31006062	      1.92527376	     19.21767001	     -7.70757666	     -3.69558871	    -40.80324971	      2.40632648	     -3.46000074	      0.48207595	    -10.94806815	      2.25070081	     80.84565042	    101.25219114	     -8.97882741	    -10.88086047	     -1.12231155	     91.64056551	     82.95130414
      0.01000000	     24.20651564	     -2.38449213	     -2.38602165	     -0.60890055	      0.60157108	     -0.63459102	     67.71601143	     -2.44251090	      3.12010054	    108.51974298	      1.89402682	     20.65111354	     -0.14543808	     -3.76033716	     68.05117516	     -2.88859656	      2.42158397	    110.33253908	      1.92566608	     19.32298507	     -7.86401471	     -3.76033716	    -40.76398193	      2.44614424	     -3.43841610	      0.44326821	    -10.97389042	      2.24764238	     80.90889700	    101.27347384	     -9.02622065	    -10.93403558	     -1.05694068	     91.75452012	     82.76948932
      0.02000000	     24.13234651	     -2.38528007	     -2.44516385	     -0.60889410	      0.60142094	     -0.63448027	     67.81984283	     -2.33280062	      3.17490822	    108.50586934	      1.89378468	     20.57186882	     -0.23633157	     -3.90244625	     68.14731615	     -2.94113481	      2.41339452	    110.34546847	      1.92589174	     19.29138459	     -7.83819917	     -3.90244625	    -40.73582878	      2.43555835	     -3.39539231	      0.44541476	    -10.98277022	      2.29854390	     81.03190686	    100.46139236	     -9.06804642	    -10.98042315	     -1.01643554	     91.87132613	     82.52364230
      0.03000000	     24.11446755	     -2.31652028	     -2.52091402	     -0.60891165	      0.60137511	     -0.63437154	     67.88224456	     -2.25508973	      3.33976385	    108.53549659	      1.89430177	     20.74145161	      0.07357753	     -4.48024375	     68.14819778	     -2.95569379	      2.32479568	    110.33926886	      1.92578354	     19.29130396	     -7.86034751	     -4.48024375	    -40.77249789	      2.34627489	     -3.37601037	      0.40094769	    -11.03171192	      2.47206661	     81.48690699	     96.45708224	     -9.08433955	    -11.02634866	     -0.95554617	     92.22653093	     80.42498209
      0.04000000	     24.07022707	     -2.30239739	     -2.53913915	     -0.60885774	      0.60136571	     -0.63431384	     67.94250638	     -2.24483969	      3.35094386	    108.54729876	      1.89450776	     20.65718800	     -0.06372067	     -4.56562056	     68.18236354	     -2.95822783	      2.31074886	    110.32746614	      1.92557754	     19.29912277	     -7.90161423	     -4.56562056	    -40.75359132	      2.34411813	     -3.36411660	      0.42519119	    -11.03464852	      2.49593282	     81.46732368	     96.22779369	     -9.06802445	    -11.05882527	     -0.89433482	     92.20376211	     80.24452660
      0.05000000	     24.09194697	     -2.27451879	     -2.51239208	     -0.60874745	      0.60145849	     -0.63433552	     67.91657971	     -2.34470003	      3.32595926	    108.56702946	      1.89485212	     20.61583215	     -0.12116981	     -4.65320781	     68.14156772	     -2.91406928	      2.29623350	    110.31702305	      1.92539527	     19.30338440	     -7.89178788	     -4.65320781	    -40.80705940	      2.34358297	     -3.39538575	      0.42663259	    -11.04892871	      2.50430309	     81.50480107	     96.00485985	     -9.06589943	    -11.11079131	     -0.84734557	     92.24613658	     80.09764554
      0.06000000	     24.12681930	     -2.25159827	     -2.48989437	     -0.60870465	      0.60162604	     -0.63439159	     67.86021787	     -2.41735656	      3.29035483	    108.56204862	      1.89476519	     20.65320023	     -0.14363319	     -4.72630863	     68.06912758	     -2.87222106	      2.28386157	    110.28987718	      1.92492149	     19.34223947	     -7.92693590	     -4.72630863	    -40.88190921	      2.34707742	     -3.41197469	      0.41306176	    -11.05779975	      2.50830661	     81.54327109	     95.89530004	     -9.06197622	    -11.15275737	     -0.80961984	     92.28006713	     79.97533501
      0.07000000	     24.16946221	     -2.24919865	     -2.48602556	     -0.60877050	      0.60179448	     -0.63443665	     67.80755514	     -2.41304780	      3.29840305	    108.54756749	      1.89451245	     20.70153441	      0.01228526	     -5.07452460	     67.99428803	     -2.85346290	      2.30372086	    110.25364510	      1.92428912	     19.28926975	     -7.89173223	     -5.07452460	    -40.98663312	      2.36026797	     -3.41281215	      0.43879991	    -11.01524353	      2.21016721	     81.17045102	    101.28223872	     -9.02269933	    -11.14923867	     -0.88834907	     91.98305790	     82.53336520
      0.08000000	     24.18384378	     -2.25843241	     -2.47952503	     -0.60881896	      0.60191339	     -0.63450411	     67.79022354	     -2.40124896	      3.29759760	    108.54108432	      1.89439929	     20.69011938	      0.03620978	     -5.32445236	     67.95816502	     -2.83485798	      2.33087137	    110.22897023	      1.92385846	     19.28726289	     -7.89761084	     -5.32445236	    -41.06263253	      2.39233996	     -3.42530031	      0.46327842	    -11.03643815	      2.25890431	     81.25945428	    100.98107899	     -9.01493801	    -11.17720804	     -0.88123350	     91.97289070	     82.76386319
      0.09000000	     24.17771423	     -2.24324287	     -2.46524913	     -0.60880217	      0.60200618	     -0.63449669	     67.79461799	     -2.44048195	      3.27331828	    108.54141887	      1.89440513	     20.60888978	     -0.09688141	     -5.40497725	     67.94539313	     -2.81297242	      2.32883278	    110.20963323	      1.92352097	     19.30800057	     -7.92035124	     -5.40497725	    -41.11020568	      2.40343756	     -3.43539991	      0.45604516	    -11.06607617	      2.30491186	     81.34741755	    100.27884491	     -8.99036016	    -11.21205510	     -0.84805048	     91.99229325	     82.45940414
      0.10000000	     24.21376899	     -2.18235701	     -2.47484538	     -0.60886225	      0.60210157	     -0.63443621	     67.75713371	     -2.47859831	      3.34904510	    108.54561536	      1.89447838	     20.74188125	      0.13826284	     -5.89285588	     67.87798284	     -2.77584209	      2.28713900	    110.17728187	      1.92295633	     19.34748268	     -7.84617000	     -5.89285588	    -41.22859734	      2.34451037	     -3.65825328	      0.60003494	    -11.08138610	      2.55042781	     81.33423157	    100.87533400	     -9.16112219	    -11.24797546	     -1.06321156	     92.24880591	     82.19169203
      0.11000000	     24.17715367	     -2.17143720	     -2.49226861	     -0.60894381	      0.60211086	     -0.63450708	     67.80436042	     -2.46484421	      3.37770266	    108.51735899	      1.89398521	     20.64701592	      0.05620923	     -5.92502634	     67.90383957	     -2.72721844	      2.30048848	    110.16058159	      1.92266485	     19.27995152	     -7.89452913	     -5.92502634	    -41.23853056	      2.36438098	     -3.59186624	      0.59237374	    -11.12168867	      2.52349241	     81.31630173	    100.73181626	     -9.08174835	    -11.21414034	     -1.00936417	     92.19969149	     81.94925341
      0.12000000	     24.10638806	     -2.16701305	     -2.49835104	     -0.60899557	      0.60202974	     -0.63445146	     67.88146996	     -2.42806421	      3.39538112	    108.50878773	      1.89383561	     20.65891827	     -0.00926741	     -5.95205335	     67.98475237	     -2.71399139	      2.30092967	    110.15171133	      1.92251004	     19.30033014	     -7.98321574	     -5.95205335	    -41.25777868	      2.35666873	     -3.55782521	      0.55089347	    -11.15330850	      2.48988873	     81.45711280	    100.69063950	     -9.07132888	    -11.24567620	     -0.93991099	     92.33453545	     81.80514751
      0.13000000	     24.16014593	     -2.11570590	     -2.48135075	     -0.60907991	      0.60215902	     -0.63440208	     67.81848771	     -2.49350328	      3.41958078	    108.50713656	      1.89380679	     20.75161045	      0.07038522	     -6.12763169	     67.91476660	     -2.63997257	      2.28639037	    110.12980454	      1.92212769	     19.26172158	     -7.99711549	     -6.12763169	    -41.43466003	      2.31757470	     -3.55951686	      0.45203111	    -11.15942841	      2.50179090	     81.94918063	     98.64307152	     -9.08648599	    -11.30647877	     -0.85574649	     92.67224597	     81.01261368
      0.14000000	     24.16163758	     -2.09868758	     -2.45043065	     -0.60905274	      0.60230033	     -0.63438710	     67.79525322	     -2.56629903	      3.38498542	    108.49742474	      1.89363729	     20.71900969	     -0.01200887	     -6.16504590	     67.91751618	     -2.59249833	      2.27511545	    110.12902379	      1.92211407	     19.26083547	     -8.04194983	     -6.16504590	    -41.49160900	      2.33872756	     -3.57411291	      0.45140175	    -11.16340943	      2.50170525	     81.97467681	     98.25321938	     -9.04621233	    -11.33757101	     -0.83984011	     92.66553371	     80.83960296
      0.15000000	     24.16810369	     -2.09247856	     -2.42983220	     -0.60917114	      0.60243601	     -0.63433042	     67.77057732	     -2.58438903	      3.37068748	    108.46838601	      1.89313047	     20.79406665	      0.02332394	     -6.17853709	     67.91811603	     -2.56560701	      2.26477442	    110.09333079	      1.92149111	     19.19735666	     -8.12338353	     -6.17853709	    -41.62566848	      2.34994008	     -3.56613749	      0.40484342	    -11.18072974	      2.46262404	     82.10509745	     98.63401087	     -9.03904811	    -11.39443603	     -0.77955089	     92.81084216	     80.72182353
